<svg width="181" height="39" viewBox="0 0 181 39" fill="none" xmlns="http://www.w3.org/2000/svg">
<path d="M34.6816 29.252C33.9723 29.252 33.431 29.056 33.0576 28.664C32.6843 28.272 32.4976 27.7213 32.4976 27.012V11.472C32.4976 10.744 32.6843 10.1933 33.0576 9.82C33.4496 9.44667 34.0003 9.26 34.7096 9.26H41.5136C43.7163 9.26 45.415 9.82 46.6096 10.94C47.8043 12.0413 48.4016 13.5813 48.4016 15.56C48.4016 17.5387 47.8043 19.088 46.6096 20.208C45.415 21.328 43.7163 21.888 41.5136 21.888H36.8376V27.012C36.8376 27.7213 36.651 28.272 36.2776 28.664C35.923 29.056 35.391 29.252 34.6816 29.252ZM36.8376 18.528H40.7856C41.9056 18.528 42.755 18.276 43.3336 17.772C43.931 17.268 44.2296 16.5307 44.2296 15.56C44.2296 14.5893 43.931 13.8613 43.3336 13.376C42.755 12.8907 41.9056 12.648 40.7856 12.648H36.8376V18.528ZM53.3034 29C52.5941 29 52.0434 28.804 51.6514 28.412C51.2781 28.02 51.0914 27.4787 51.0914 26.788V11.416C51.0914 10.688 51.2781 10.1373 51.6514 9.764C52.0247 9.39067 52.5661 9.204 53.2754 9.204C53.9661 9.204 54.4981 9.39067 54.8714 9.764C55.2447 10.1373 55.4314 10.688 55.4314 11.416V25.332H62.9354C63.5327 25.332 63.9901 25.4907 64.3074 25.808C64.6434 26.1253 64.8114 26.5733 64.8114 27.152C64.8114 27.7493 64.6434 28.2067 64.3074 28.524C63.9901 28.8413 63.5327 29 62.9354 29H53.3034ZM67.3467 29.252C66.824 29.252 66.3947 29.1307 66.0587 28.888C65.7414 28.6453 65.536 28.3187 65.4427 27.908C65.368 27.4973 65.452 27.04 65.6947 26.536L72.8627 10.828C73.1614 10.1933 73.516 9.736 73.9267 9.456C74.3374 9.15733 74.8134 9.008 75.3547 9.008C75.896 9.008 76.372 9.15733 76.7827 9.456C77.1934 9.736 77.5387 10.1933 77.8187 10.828L85.0427 26.536C85.2854 27.04 85.3694 27.5067 85.2947 27.936C85.2387 28.3467 85.052 28.6733 84.7347 28.916C84.4174 29.14 84.0067 29.252 83.5027 29.252C82.868 29.252 82.3734 29.1027 82.0187 28.804C81.6827 28.5053 81.384 28.0387 81.1227 27.404L79.4427 23.512L81.1787 24.716H69.5027L71.2387 23.512L69.5867 27.404C69.3067 28.0573 69.008 28.5333 68.6907 28.832C68.392 29.112 67.944 29.252 67.3467 29.252ZM75.2987 13.88L71.7147 22.42L70.9587 21.328H79.7227L78.9667 22.42L75.3547 13.88H75.2987ZM96.9799 29.308C94.8519 29.308 93.0319 28.888 91.5199 28.048C90.0079 27.208 88.8412 26.032 88.0199 24.52C87.2172 22.9893 86.8159 21.188 86.8159 19.116C86.8159 17.5667 87.0399 16.176 87.4879 14.944C87.9546 13.6933 88.6266 12.6293 89.5039 11.752C90.3812 10.856 91.4452 10.1653 92.6959 9.68C93.9652 9.19467 95.3932 8.952 96.9799 8.952C97.9132 8.952 98.8559 9.07333 99.8079 9.316C100.779 9.54 101.619 9.86667 102.328 10.296C102.795 10.5573 103.112 10.884 103.28 11.276C103.448 11.668 103.495 12.06 103.42 12.452C103.364 12.844 103.205 13.18 102.944 13.46C102.701 13.74 102.393 13.9173 102.02 13.992C101.647 14.0667 101.227 13.9827 100.76 13.74C100.2 13.404 99.6119 13.1613 98.9959 13.012C98.3799 12.8627 97.7546 12.788 97.1199 12.788C95.8692 12.788 94.8146 13.04 93.9559 13.544C93.1159 14.0293 92.4812 14.7387 92.0519 15.672C91.6226 16.6053 91.4079 17.7533 91.4079 19.116C91.4079 20.46 91.6226 21.608 92.0519 22.56C92.4812 23.512 93.1159 24.24 93.9559 24.744C94.8146 25.2293 95.8692 25.472 97.1199 25.472C97.7172 25.472 98.3239 25.3973 98.9399 25.248C99.5746 25.0987 100.181 24.8653 100.76 24.548C101.245 24.3053 101.675 24.2213 102.048 24.296C102.44 24.352 102.757 24.52 103 24.8C103.261 25.0613 103.42 25.3787 103.476 25.752C103.551 26.1253 103.513 26.4987 103.364 26.872C103.215 27.2453 102.935 27.5627 102.524 27.824C101.833 28.2907 100.984 28.6547 99.9759 28.916C98.9679 29.1773 97.9692 29.308 96.9799 29.308ZM108.813 29C108.085 29 107.525 28.804 107.133 28.412C106.741 28.02 106.545 27.46 106.545 26.732V11.528C106.545 10.8 106.741 10.24 107.133 9.848C107.525 9.456 108.085 9.26 108.813 9.26H118.585C119.145 9.26 119.565 9.40933 119.845 9.708C120.143 9.988 120.293 10.3987 120.293 10.94C120.293 11.5 120.143 11.9293 119.845 12.228C119.565 12.508 119.145 12.648 118.585 12.648H110.689V17.268H117.941C118.519 17.268 118.949 17.4173 119.229 17.716C119.527 17.996 119.677 18.416 119.677 18.976C119.677 19.536 119.527 19.9653 119.229 20.264C118.949 20.544 118.519 20.684 117.941 20.684H110.689V25.612H118.585C119.145 25.612 119.565 25.7613 119.845 26.06C120.143 26.34 120.293 26.7507 120.293 27.292C120.293 27.852 120.143 28.2813 119.845 28.58C119.565 28.86 119.145 29 118.585 29H108.813ZM125.682 29.252C124.972 29.252 124.431 29.056 124.058 28.664C123.684 28.272 123.498 27.7213 123.498 27.012V11.472C123.498 10.744 123.684 10.1933 124.058 9.82C124.45 9.44667 125 9.26 125.71 9.26H132.514C134.716 9.26 136.415 9.792 137.61 10.856C138.804 11.92 139.402 13.404 139.402 15.308C139.402 16.54 139.131 17.604 138.59 18.5C138.048 19.396 137.264 20.0867 136.238 20.572C135.23 21.0573 133.988 21.3 132.514 21.3L132.738 20.824H133.886C134.67 20.824 135.351 21.02 135.93 21.412C136.527 21.7853 137.04 22.364 137.47 23.148L139.206 26.368C139.467 26.8347 139.588 27.292 139.57 27.74C139.551 28.188 139.383 28.552 139.066 28.832C138.748 29.112 138.282 29.252 137.666 29.252C137.05 29.252 136.546 29.1213 136.154 28.86C135.78 28.5987 135.444 28.1973 135.146 27.656L132.458 22.7C132.178 22.1773 131.832 21.8227 131.422 21.636C131.03 21.4493 130.544 21.356 129.966 21.356H127.838V27.012C127.838 27.7213 127.651 28.272 127.278 28.664C126.923 29.056 126.391 29.252 125.682 29.252ZM127.838 18.22H131.73C132.887 18.22 133.755 17.9867 134.334 17.52C134.931 17.0533 135.23 16.3533 135.23 15.42C135.23 14.5053 134.931 13.8147 134.334 13.348C133.755 12.8813 132.887 12.648 131.73 12.648H127.838V18.22Z" fill="#1A0C06"/>
<path fill-rule="evenodd" clip-rule="evenodd" d="M11.663 27.9211C7.94166 27.9211 4.64147 28.6323 2.5959 29.7188C1.15012 30.4865 0.325928 31.4581 0.325928 32.4823C0.325928 33.5061 1.15012 34.4781 2.5959 35.2457C4.64147 36.3319 7.94166 37.0434 11.663 37.0434C15.3844 37.0434 18.6846 36.3319 20.7298 35.2457C22.1756 34.4781 23 33.5061 23 32.4823C23 31.4581 22.1756 30.4865 20.7298 29.7188C18.6846 28.6323 15.3844 27.9211 11.663 27.9211ZM11.663 28.4028C15.2905 28.4028 18.5099 29.085 20.5042 30.1441C21.7519 30.8066 22.5184 31.5985 22.5184 32.4823C22.5184 33.3657 21.7519 34.1576 20.5042 34.8201C18.5099 35.8792 15.2905 36.5618 11.663 36.5618C8.03524 36.5618 4.81589 35.8792 2.82177 34.8201C1.57415 34.1576 0.807496 33.3657 0.807496 32.4823C0.807496 31.5985 1.57415 30.8066 2.82177 30.1441C4.81589 29.085 8.03524 28.4028 11.663 28.4028Z" fill="black"/>
<path fill-rule="evenodd" clip-rule="evenodd" d="M16.9284 29.7503C14.6946 26.715 12.412 23.7253 10.1559 20.7105C9.22143 19.4624 8.28506 18.2155 7.35648 16.9611C6.75999 16.1557 6.08509 15.336 5.65611 14.3919C5.17321 13.3296 5.09977 12.2126 5.38955 11.068C5.96371 8.80107 7.63161 7.06734 9.71549 6.71033C10.2461 6.6193 10.8075 6.66898 11.331 6.79175C11.8955 6.92453 12.4318 7.16756 12.9222 7.5062C14.4467 8.55763 15.6495 10.4029 15.7387 12.4393C15.7679 13.1074 15.6978 13.8854 15.3402 14.4411C14.9197 15.0959 14.3995 15.7506 13.8539 16.2784C13.2348 16.8776 12.8228 17.1883 11.8943 17.9295L14.9732 21.7878C16.0727 20.9105 16.5539 20.5351 17.2872 19.8256C18.0946 19.044 18.8698 18.0794 19.4925 17.111C20.3733 15.7414 20.7422 13.8691 20.6703 12.2239C20.5123 8.61067 18.4297 5.30856 15.7256 3.44288C14.7201 2.7493 13.6174 2.25824 12.4604 1.98641C11.3011 1.71416 10.0561 1.64359 8.88124 1.84485C4.97203 2.51505 1.68136 5.60294 0.604254 9.85626C0.030612 12.1216 0.206098 14.3309 1.16217 16.4346C1.73562 17.6961 2.592 18.8222 3.3894 19.8991C4.32297 21.1598 5.26436 22.4133 6.20387 23.6685C8.45204 26.6725 10.7267 29.6518 12.9524 32.6762L16.9284 29.7503Z" fill="#FF6721"/>
</svg>
