<svg width="1298" height="749" viewBox="0 0 1298 749" fill="none" xmlns="http://www.w3.org/2000/svg">
<path d="M302.028 260.526C293.622 260.526 286.778 253.697 286.778 245.31C286.778 236.923 293.622 230.094 302.028 230.094C310.434 230.094 317.278 236.923 317.278 245.31C317.291 253.697 310.446 260.526 302.028 260.526ZM302.028 231.728C294.531 231.728 288.428 237.817 288.428 245.297C288.428 252.777 294.531 258.879 302.028 258.879C309.538 258.879 315.641 252.79 315.641 245.297C315.641 237.817 309.538 231.728 302.028 231.728Z" fill="#FFC04D"/>
<path d="M151.626 30.4315C143.22 30.4315 136.375 23.6023 136.375 15.2158C136.375 6.82922 143.22 0 151.626 0C160.031 0 166.876 6.82922 166.876 15.2158C166.889 23.6023 160.044 30.4315 151.626 30.4315ZM151.626 1.63391C144.128 1.63391 138.026 7.72276 138.026 15.203C138.026 22.6832 144.128 28.7848 151.626 28.7848C159.136 28.7848 165.238 22.696 165.238 15.203C165.238 7.72276 159.136 1.63391 151.626 1.63391Z" fill="#FFC04D"/>
<path d="M58.3671 430.432C49.9615 430.432 43.1168 423.602 43.1168 415.216C43.1168 406.829 49.9615 400 58.3671 400C66.7727 400 73.6175 406.829 73.6175 415.216C73.6303 423.602 66.7855 430.432 58.3671 430.432ZM58.3671 401.634C50.8699 401.634 44.7672 407.723 44.7672 415.203C44.7672 422.683 50.8699 428.785 58.3671 428.785C65.8772 428.785 71.9799 422.696 71.9799 415.203C71.9799 407.723 65.8772 401.634 58.3671 401.634Z" fill="#FFC04D"/>
<path d="M681.093 663.432C672.688 663.432 665.843 656.602 665.843 648.216C665.843 639.829 672.688 633 681.093 633C689.499 633 696.344 639.829 696.344 648.216C696.356 656.602 689.512 663.432 681.093 663.432ZM681.093 634.634C673.596 634.634 667.493 640.723 667.493 648.203C667.493 655.683 673.596 661.785 681.093 661.785C688.603 661.785 694.706 655.696 694.706 648.203C694.706 640.723 688.603 634.634 681.093 634.634Z" fill="#FFC04D"/>
<path d="M1281.76 482.432C1273.35 482.432 1266.51 475.602 1266.51 467.216C1266.51 458.829 1273.35 452 1281.76 452C1290.16 452 1297.01 458.829 1297.01 467.216C1297.02 475.602 1290.18 482.432 1281.76 482.432ZM1281.76 453.634C1274.26 453.634 1268.16 459.723 1268.16 467.203C1268.16 474.683 1274.26 480.785 1281.76 480.785C1289.27 480.785 1295.37 474.696 1295.37 467.203C1295.37 459.723 1289.27 453.634 1281.76 453.634Z" fill="#FFC04D"/>
<path d="M1074.51 289.311C1066.11 289.311 1059.26 282.481 1059.26 274.095C1059.26 265.708 1066.11 258.879 1074.51 258.879C1082.92 258.879 1089.76 265.708 1089.76 274.095C1089.76 282.481 1082.92 289.311 1074.51 289.311ZM1074.51 260.526C1067.02 260.526 1060.91 266.615 1060.91 274.095C1060.91 281.575 1067.02 287.677 1074.51 287.677C1082.02 287.677 1088.13 281.588 1088.13 274.095C1088.11 266.615 1082.01 260.526 1074.51 260.526Z" fill="#FF4A57"/>
<path d="M359.204 620.253C359.204 623.623 356.466 626.355 353.088 626.355C349.711 626.355 346.973 623.623 346.973 620.253C346.973 616.883 349.711 614.152 353.088 614.152C356.479 614.164 359.204 616.883 359.204 620.253Z" fill="#0082FF"/>
<path d="M422.713 692.898C422.713 696.268 419.975 699 416.598 699C413.22 699 410.482 696.268 410.482 692.898C410.482 689.528 413.22 686.797 416.598 686.797C419.975 686.797 422.713 689.528 422.713 692.898Z" stroke="#FF4A57" stroke-miterlimit="10"/>
<path d="M913.727 481.102C913.727 484.472 910.989 487.203 907.612 487.203C904.234 487.203 901.496 484.472 901.496 481.102C901.496 477.732 904.234 475 907.612 475C910.989 475 913.727 477.732 913.727 481.102Z" stroke="#FF4A57" stroke-miterlimit="10"/>
<path d="M780.943 337.945C780.943 341.06 778.41 343.587 775.288 343.587C772.166 343.587 769.633 341.06 769.633 337.945C769.633 334.83 772.166 332.303 775.288 332.303C778.41 332.29 780.943 334.817 780.943 337.945Z" fill="#FF4A57"/>
<path d="M989.919 682.086C989.919 685.456 987.181 688.188 983.804 688.188C980.426 688.188 977.688 685.456 977.688 682.086C977.688 678.717 980.426 675.985 983.804 675.985C987.181 675.998 989.919 678.717 989.919 682.086Z" fill="#FF4A57"/>
<path d="M948.454 228.831C948.454 232.201 945.716 234.932 942.338 234.932C938.961 234.932 936.223 232.201 936.223 228.831C936.223 225.461 938.961 222.729 942.338 222.729C945.716 222.729 948.454 225.461 948.454 228.831Z" fill="#FFC04D"/>
<path d="M949.457 540.831C949.457 544.201 946.719 546.932 943.341 546.932C939.963 546.932 937.226 544.201 937.226 540.831C937.226 537.461 939.963 534.729 943.341 534.729C946.719 534.729 949.457 537.461 949.457 540.831Z" fill="#FFC04D"/>
<path d="M279.83 455.727C279.83 459.097 277.093 461.828 273.715 461.828C270.337 461.828 267.599 459.097 267.599 455.727C267.599 452.357 270.337 449.625 273.715 449.625C277.093 449.625 279.83 452.357 279.83 455.727Z" fill="#FF4A57"/>
<path d="M745.159 402.203C745.159 403.888 743.79 405.254 742.101 405.254C740.412 405.254 739.043 403.888 739.043 402.203C739.043 400.518 740.412 399.153 742.101 399.153C743.803 399.153 745.159 400.518 745.159 402.203Z" fill="#FFC04D"/>
<path d="M1071.46 386.898C1071.46 388.583 1070.09 389.949 1068.4 389.949C1066.71 389.949 1065.34 388.583 1065.34 386.898C1065.34 385.213 1066.71 383.847 1068.4 383.847C1070.09 383.847 1071.46 385.213 1071.46 386.898Z" fill="#FFC965"/>
<path d="M525.155 332.29C525.155 333.975 523.785 335.341 522.096 335.341C520.408 335.341 519.038 333.975 519.038 332.29C519.038 330.605 520.408 329.239 522.096 329.239C523.785 329.252 525.155 330.618 525.155 332.29Z" fill="#FF4A57"/>
<path d="M1074.51 544.979C1074.51 546.664 1073.14 548.03 1071.46 548.03C1069.77 548.03 1068.4 546.664 1068.4 544.979C1068.4 543.294 1069.77 541.928 1071.46 541.928C1073.14 541.928 1074.51 543.294 1074.51 544.979Z" stroke="#00B0AA" stroke-width="0.8862" stroke-miterlimit="10"/>
<path d="M425.759 274.095C425.759 275.78 424.389 277.146 422.7 277.146C421.012 277.146 419.642 275.78 419.642 274.095C419.642 272.41 421.012 271.044 422.7 271.044C424.389 271.044 425.759 272.41 425.759 274.095Z" stroke="#00B0AA" stroke-width="0.8862" stroke-miterlimit="10"/>
<path d="M7.11607 289.051C7.11607 290.736 5.74699 292.102 4.05803 292.102C2.36908 292.102 1 290.736 1 289.051C1 287.366 2.36908 286 4.05803 286C5.74699 286 7.11607 287.366 7.11607 289.051Z" stroke="#00B0AA" stroke-width="0.8862" stroke-miterlimit="10"/>
<path d="M117.422 176.051C117.422 177.736 116.053 179.102 114.364 179.102C112.675 179.102 111.306 177.736 111.306 176.051C111.306 174.366 112.675 173 114.364 173C116.053 173 117.422 174.366 117.422 176.051Z" stroke="#00B0AA" stroke-width="0.8862" stroke-miterlimit="10"/>
<path d="M364.412 285.047C364.412 286.732 363.043 288.098 361.354 288.098C359.665 288.098 358.296 286.732 358.296 285.047C358.296 283.362 359.665 281.996 361.354 281.996C363.043 281.996 364.412 283.375 364.412 285.047Z" fill="#0082FF"/>
<path d="M1114.51 430.312C1116.2 430.312 1117.56 428.946 1117.56 427.261C1117.56 425.576 1116.2 424.21 1114.51 424.21C1112.82 424.21 1111.45 425.576 1111.45 427.261C1111.45 428.946 1112.82 430.312 1114.51 430.312Z" fill="#0082FF"/>
<path d="M1017.21 197.595C1017.21 199.28 1015.84 200.646 1014.15 200.646C1012.46 200.646 1011.09 199.28 1011.09 197.595C1011.09 195.91 1012.46 194.544 1014.15 194.544C1015.84 194.557 1017.21 195.91 1017.21 197.595Z" fill="#0082FF"/>
<path d="M913.578 304.999C905.927 304.999 899.696 298.782 899.696 291.149C899.696 283.515 905.927 277.299 913.578 277.299C921.228 277.299 927.459 283.515 927.459 291.149C927.459 298.782 921.228 304.999 913.578 304.999ZM913.578 278.933C906.835 278.933 901.334 284.409 901.334 291.149C901.334 297.876 906.822 303.365 913.578 303.365C920.32 303.365 925.821 297.889 925.821 291.149C925.809 284.422 920.32 278.933 913.578 278.933Z" fill="#00B0AA"/>
<path d="M914.58 616.999C906.93 616.999 900.699 610.782 900.699 603.149C900.699 595.515 906.93 589.299 914.58 589.299C922.231 589.299 928.462 595.515 928.462 603.149C928.462 610.782 922.231 616.999 914.58 616.999ZM914.58 590.933C907.838 590.933 902.337 596.409 902.337 603.149C902.337 609.876 907.825 615.365 914.58 615.365C921.323 615.365 926.824 609.889 926.824 603.149C926.811 596.422 921.323 590.933 914.58 590.933Z" fill="#00B0AA"/>
<path d="M645.881 125.7C638.231 125.7 632 119.483 632 111.85C632 104.217 638.231 98 645.881 98C653.532 98 659.763 104.217 659.763 111.85C659.763 119.483 653.532 125.7 645.881 125.7ZM645.881 99.6339C639.139 99.6339 633.638 105.11 633.638 111.85C633.638 118.577 639.126 124.066 645.881 124.066C652.624 124.066 658.125 118.59 658.125 111.85C658.112 105.123 652.624 99.6339 645.881 99.6339Z" fill="#00B0AA"/>
<path d="M336.559 482.354C330.162 482.354 324.955 477.159 324.955 470.776C324.955 464.394 330.162 459.199 336.559 459.199C342.956 459.199 348.163 464.394 348.163 470.776C348.163 477.159 342.943 482.354 336.559 482.354ZM336.559 460.845C331.07 460.845 326.605 465.3 326.605 470.776C326.605 476.253 331.07 480.708 336.559 480.708C342.047 480.708 346.512 476.253 346.512 470.776C346.512 465.3 342.047 460.845 336.559 460.845Z" fill="#00B0AA"/>
<path d="M1057.39 486.567C1052.29 486.567 1048.13 482.418 1048.13 477.325C1048.13 472.232 1052.29 468.083 1057.39 468.083C1062.5 468.083 1066.66 472.232 1066.66 477.325C1066.67 482.418 1062.51 486.567 1057.39 486.567ZM1057.39 469.717C1053.2 469.717 1049.77 473.125 1049.77 477.325C1049.77 481.524 1053.19 484.933 1057.39 484.933C1061.59 484.933 1065.02 481.524 1065.02 477.325C1065.02 473.125 1061.6 469.717 1057.39 469.717Z" fill="#FFB5D6"/>
<path d="M1003.08 330.043C997.979 330.043 993.821 325.895 993.821 320.802C993.821 315.708 997.979 311.56 1003.08 311.56C1008.19 311.56 1012.35 315.708 1012.35 320.802C1012.35 325.895 1008.19 330.043 1003.08 330.043ZM1003.08 313.194C998.888 313.194 995.459 316.602 995.459 320.802C995.459 325.001 998.875 328.409 1003.08 328.409C1007.28 328.409 1010.71 325.001 1010.71 320.802C1010.71 316.602 1007.28 313.194 1003.08 313.194Z" fill="#0082FF"/>
<path d="M1078.07 633.248C1072.96 633.248 1068.81 629.099 1068.81 624.006C1068.81 618.913 1072.96 614.764 1078.07 614.764C1083.17 614.764 1087.33 618.913 1087.33 624.006C1087.33 629.099 1083.17 633.248 1078.07 633.248ZM1078.07 616.398C1073.87 616.398 1070.44 619.807 1070.44 624.006C1070.44 628.193 1073.86 631.614 1078.07 631.614C1082.27 631.614 1085.69 628.206 1085.69 624.006C1085.68 619.819 1082.27 616.398 1078.07 616.398Z" fill="#FFC04D"/>
<path d="M620.789 374.618C614.609 374.618 609.581 369.602 609.581 363.436C609.581 357.271 614.609 352.254 620.789 352.254C626.968 352.254 631.996 357.271 631.996 363.436C631.996 369.602 626.968 374.618 620.789 374.618ZM620.789 353.697C615.402 353.697 611.027 358.062 611.027 363.436C611.027 368.81 615.402 373.176 620.789 373.176C626.175 373.176 630.55 368.81 630.55 363.436C630.55 358.062 626.175 353.697 620.789 353.697Z" fill="#0082FF"/>
<path d="M501.564 545.364C495.385 545.364 490.357 540.348 490.357 534.182C490.357 528.017 495.385 523 501.564 523C507.743 523 512.771 528.017 512.771 534.182C512.771 540.348 507.743 545.364 501.564 545.364ZM501.564 524.442C496.178 524.442 491.802 528.808 491.802 534.182C491.802 539.556 496.178 543.922 501.564 543.922C506.95 543.922 511.326 539.556 511.326 534.182C511.326 528.808 506.95 524.442 501.564 524.442Z" fill="#0082FF"/>
<path d="M295.541 690.422C290.936 690.422 287.2 686.682 287.2 682.099C287.2 677.504 290.948 673.777 295.541 673.777C300.147 673.777 303.883 677.517 303.883 682.099C303.883 686.682 300.147 690.422 295.541 690.422ZM295.541 675.411C291.844 675.411 288.837 678.41 288.837 682.099C288.837 685.788 291.844 688.788 295.541 688.788C299.239 688.788 302.245 685.788 302.245 682.099C302.245 678.41 299.239 675.411 295.541 675.411Z" fill="#FFB5D6"/>
</svg>
